<mxfile host="app.diagrams.net" modified="2024-07-09T17:52:29.375Z" agent="Mozilla/5.0 (Macintosh; Intel Mac OS X 10_15_7) AppleWebKit/537.36 (KHTML, like Gecko) Chrome/125.0.0.0 Safari/537.36" version="24.6.4" etag="H5Y0CjTHd8w0llWp-xjV" type="github">
  <diagram name="Page-1" id="V-dkTUpnWURR15n6tk8J">
    <mxGraphModel>
      <root>
        <mxCell id="0" />
        <mxCell id="1" parent="0" />
      </root>
    </mxGraphModel>
  </diagram>
</mxfile>
